<svg width="32" height="33" viewBox="0 0 32 33" fill="none" xmlns="http://www.w3.org/2000/svg">
<path fill-rule="evenodd" clip-rule="evenodd" d="M16.1454 0C13.5293 0 11.2452 1.421 10.0232 3.53308H4.0095C2.90493 3.53308 2.0095 4.42851 2.0095 5.53308V26.2646C2.0095 27.3692 2.90493 28.2646 4.0095 28.2646H28.2807C29.3853 28.2646 30.2807 27.3692 30.2807 26.2646V5.53308C30.2807 4.42851 29.3853 3.53308 28.2807 3.53308H22.2677C21.0456 1.421 18.7615 0 16.1454 0ZM16.1454 22.9649C20.0489 22.9649 23.2132 19.8013 23.2132 15.8988C23.2132 11.9963 20.0489 8.83264 16.1454 8.83264C12.242 8.83264 9.07761 11.9963 9.07761 15.8988C9.07761 19.8013 12.242 22.9649 16.1454 22.9649ZM7.3094 7.06615C7.3094 8.04178 6.51844 8.83269 5.54275 8.83269C4.56706 8.83269 3.77611 8.04178 3.77611 7.06615C3.77611 6.09052 4.56706 5.29961 5.54275 5.29961C6.51844 5.29961 7.3094 6.09052 7.3094 7.06615ZM16.1455 21.1985C19.0731 21.1985 21.4464 18.8258 21.4464 15.8989C21.4464 12.972 19.0731 10.5992 16.1455 10.5992C13.2179 10.5992 10.8446 12.972 10.8446 15.8989C10.8446 18.8258 13.2179 21.1985 16.1455 21.1985ZM0.292902 31.7091C-0.097634 31.3185 -0.0976341 30.6854 0.292902 30.2949L30.29 0.299614C30.6805 -0.0908977 31.3137 -0.090898 31.7043 0.299614C32.0948 0.690127 32.0948 1.32327 31.7043 1.71378L1.70716 31.7091C1.31662 32.0996 0.683438 32.0996 0.292902 31.7091Z" fill="black"/>
</svg>
